<?xml version="1.0" encoding="UTF-8" standalone="no"?>
<!-- Created with Inkscape (http://www.inkscape.org/) -->

<svg
   xmlns:osb="http://www.openswatchbook.org/uri/2009/osb"
   xmlns:dc="http://purl.org/dc/elements/1.1/"
   xmlns:cc="http://creativecommons.org/ns#"
   xmlns:rdf="http://www.w3.org/1999/02/22-rdf-syntax-ns#"
   xmlns:svg="http://www.w3.org/2000/svg"
   xmlns="http://www.w3.org/2000/svg"
   xmlns:xlink="http://www.w3.org/1999/xlink"
   xmlns:sodipodi="http://sodipodi.sourceforge.net/DTD/sodipodi-0.dtd"
   xmlns:inkscape="http://www.inkscape.org/namespaces/inkscape"
   width="349.75mm"
   height="141.35571mm"
   viewBox="0 0 349.75 141.35571"
   version="1.1"
   id="svg8"
   inkscape:version="0.92.2 (5c3e80d, 2017-08-06)"
   sodipodi:docname="SFC_System.svg">
  <defs
     id="defs2">
    <pattern
       inkscape:collect="always"
       xlink:href="#pattern258"
       id="pattern270"
       patternTransform="matrix(0.26458333,0,0,0.26458333,32.27422,32.128694)" />
    <pattern
       inkscape:collect="always"
       xlink:href="#pattern211"
       id="pattern258"
       patternTransform="matrix(0.26458333,0,0,0.26458333,32.27422,32.491864)" />
    <pattern
       inkscape:collect="always"
       xlink:href="#pattern199"
       id="pattern211"
       patternTransform="matrix(0.26458333,0,0,0.26458333,32.427974,32.491864)" />
    <pattern
       inkscape:collect="always"
       xlink:href="#pattern179"
       id="pattern199"
       patternTransform="matrix(0.26458333,0,0,0.26458333,32.427974,32.491864)" />
    <pattern
       inkscape:collect="always"
       xlink:href="#pattern4938"
       id="pattern179"
       patternTransform="matrix(0.26458333,0,0,0.26458333,32.427974,38.422286)" />
    <pattern
       inkscape:collect="always"
       xlink:href="#pattern4875"
       id="pattern4938"
       patternTransform="matrix(0.26458333,0,0,0.26458333,32.427974,-46.766462)" />
    <pattern
       inkscape:collect="always"
       xlink:href="#pattern1172"
       id="pattern4875"
       patternTransform="matrix(0.26458333,0,0,0.26458333,32.427974,-46.766462)" />
    <pattern
       inkscape:collect="always"
       xlink:href="#pattern1160"
       id="pattern1172"
       patternTransform="matrix(0.26458333,0,0,0.26458333,48.925507,36.880188)" />
    <pattern
       inkscape:collect="always"
       xlink:href="#pattern1148"
       id="pattern1160"
       patternTransform="matrix(0.26458333,0,0,0.26458333,48.925507,37.409355)" />
    <pattern
       inkscape:collect="always"
       xlink:href="#pattern1136"
       id="pattern1148"
       patternTransform="matrix(0.26458333,0,0,0.26458333,48.925507,36.880188)" />
    <pattern
       inkscape:collect="always"
       xlink:href="#pattern1124"
       id="pattern1136"
       patternTransform="matrix(0.26458333,0,0,0.26458333,48.925507,36.351021)" />
    <pattern
       inkscape:collect="always"
       xlink:href="#pattern1112"
       id="pattern1124"
       patternTransform="matrix(0.26458333,0,0,0.26458333,48.925507,35.821854)" />
    <pattern
       inkscape:collect="always"
       xlink:href="#pattern1100"
       id="pattern1112"
       patternTransform="matrix(0.26458333,0,0,0.26458333,48.925507,35.292687)" />
    <pattern
       inkscape:collect="always"
       xlink:href="#pattern1088"
       id="pattern1100"
       patternTransform="matrix(0.26458333,0,0,0.26458333,48.925507,34.76352)" />
    <pattern
       inkscape:collect="always"
       xlink:href="#pattern1076"
       id="pattern1088"
       patternTransform="matrix(0.26458333,0,0,0.26458333,48.925507,34.234353)" />
    <pattern
       inkscape:collect="always"
       xlink:href="#pattern1064"
       id="pattern1076"
       patternTransform="matrix(0.26458333,0,0,0.26458333,48.925507,33.705186)" />
    <pattern
       inkscape:collect="always"
       xlink:href="#pattern1052"
       id="pattern1064"
       patternTransform="matrix(0.26458333,0,0,0.26458333,25.187332,37.77287)" />
    <pattern
       inkscape:collect="always"
       xlink:href="#pattern1040"
       id="pattern1052"
       patternTransform="matrix(0.26458333,0,0,0.26458333,24.658165,37.77287)" />
    <pattern
       inkscape:collect="always"
       xlink:href="#pattern1028"
       id="pattern1040"
       patternTransform="matrix(0.26458333,0,0,0.26458333,24.128998,37.77287)" />
    <pattern
       inkscape:collect="always"
       xlink:href="#pattern1016"
       id="pattern1028"
       patternTransform="matrix(0.26458333,0,0,0.26458333,23.599831,37.77287)" />
    <pattern
       inkscape:collect="always"
       xlink:href="#pattern1004"
       id="pattern1016"
       patternTransform="matrix(0.26458333,0,0,0.26458333,23.070664,37.77287)" />
    <pattern
       inkscape:collect="always"
       xlink:href="#pattern992"
       id="pattern1004"
       patternTransform="matrix(0.26458333,0,0,0.26458333,22.541497,37.77287)" />
    <pattern
       inkscape:collect="always"
       xlink:href="#pattern980"
       id="pattern992"
       patternTransform="matrix(0.26458333,0,0,0.26458333,22.01233,37.77287)" />
    <pattern
       inkscape:collect="always"
       xlink:href="#pattern2465"
       id="pattern980"
       patternTransform="matrix(0.26458333,0,0,0.26458333,21.483163,37.77287)" />
    <pattern
       inkscape:collect="always"
       xlink:href="#pattern1746"
       id="pattern2465"
       patternTransform="matrix(0.26458333,0,0,0.26458333,20.953996,37.77287)" />
    <pattern
       inkscape:collect="always"
       xlink:href="#pattern1892"
       id="pattern1746"
       patternTransform="matrix(0.26458333,0,0,0.26458333,123.87863,27.289805)" />
    <pattern
       inkscape:collect="always"
       xlink:href="#pattern1761"
       id="pattern1892"
       patternTransform="matrix(0.26458333,0,0,0.26458333,115.45517,25.268174)" />
    <pattern
       inkscape:collect="always"
       xlink:href="#pattern3109"
       id="pattern1761"
       patternTransform="matrix(0.26458333,0,0,0.26458333,115.45517,24.379205)" />
    <pattern
       inkscape:collect="always"
       xlink:href="#pattern868"
       id="pattern1585"
       patternTransform="matrix(0.16245134,0,0,0.10975854,101.83145,23.094494)" />
    <linearGradient
       id="linearGradient3103"
       osb:paint="solid">
      <stop
         style="stop-color:#000000;stop-opacity:1;"
         offset="0"
         id="stop3101" />
    </linearGradient>
    <pattern
       patternUnits="userSpaceOnUse"
       width="0.99999995"
       height="15.110642"
       patternTransform="matrix(0.26458333,0,0,0.26458333,114.06014,24.379205)"
       id="pattern3109">
      <path
         inkscape:connector-curvature="0"
         id="path3107"
         d="M 0.49999997,0 V 15.110642"
         style="fill:none;stroke:#000000;stroke-width:0.99999994px;stroke-linecap:butt;stroke-linejoin:miter;stroke-opacity:1" />
    </pattern>
    <pattern
       patternUnits="userSpaceOnUse"
       width="37.324484"
       height="61.553835"
       patternTransform="matrix(0.26458333,0,0,0.26458333,71.393437,16.712206)"
       id="pattern868">
      <path
         inkscape:connector-curvature="0"
         id="path866"
         d="M 3.8043578,1.9616216 C 33.520126,59.592213 33.520126,59.592213 33.520126,59.592213"
         style="fill:none;stroke:#000000;stroke-width:8.56062984;stroke-linecap:butt;stroke-linejoin:miter;stroke-miterlimit:4;stroke-dasharray:none;stroke-opacity:1" />
    </pattern>
  </defs>
  <sodipodi:namedview
     id="base"
     pagecolor="#ffffff"
     bordercolor="#666666"
     borderopacity="1.0"
     inkscape:pageopacity="0.0"
     inkscape:pageshadow="2"
     inkscape:zoom="0.66420062"
     inkscape:cx="660.94488"
     inkscape:cy="267.12891"
     inkscape:document-units="mm"
     inkscape:current-layer="layer1"
     showgrid="false"
     inkscape:window-width="1366"
     inkscape:window-height="705"
     inkscape:window-x="-8"
     inkscape:window-y="-8"
     inkscape:window-maximized="1"
     fit-margin-top="0"
     fit-margin-left="0"
     fit-margin-right="0"
     fit-margin-bottom="0"
     showguides="false"
     inkscape:guide-bbox="true"
     inkscape:object-paths="true"
     inkscape:snap-object-midpoints="true"
     inkscape:snap-global="false">
    <inkscape:grid
       type="xygrid"
       id="grid951"
       originx="16.497532"
       originy="-3.0249371" />
    <sodipodi:guide
       position="133.65621,123.45419"
       orientation="1,0"
       id="guide213"
       inkscape:locked="false" />
    <sodipodi:guide
       position="198.42598,134.92358"
       orientation="0,1"
       id="guide215"
       inkscape:locked="false" />
    <sodipodi:guide
       position="149.91676,95.290091"
       orientation="0,1"
       id="guide217"
       inkscape:locked="false" />
    <sodipodi:guide
       position="183.98623,119.2908"
       orientation="1,0"
       id="guide219"
       inkscape:locked="false" />
    <sodipodi:guide
       position="127.08278,88.93317"
       orientation="0,1"
       id="guide272"
       inkscape:locked="false" />
    <sodipodi:guide
       position="237.74488,115.92239"
       orientation="0,1"
       id="guide283"
       inkscape:locked="false" />
  </sodipodi:namedview>
  <metadata
     id="metadata5">
    <rdf:RDF>
      <cc:Work
         rdf:about="">
        <dc:format>image/svg+xml</dc:format>
        <dc:type
           rdf:resource="http://purl.org/dc/dcmitype/StillImage" />
        <dc:title></dc:title>
      </cc:Work>
    </rdf:RDF>
  </metadata>
  <g
     inkscape:label="Layer 1"
     inkscape:groupmode="layer"
     id="layer1"
     transform="translate(14.619965,-5.492589)">
    <text
       xml:space="preserve"
       style="font-style:normal;font-variant:normal;font-weight:normal;font-stretch:normal;font-size:10.58333302px;line-height:1.25;font-family:Bahnschrift;-inkscape-font-specification:Bahnschrift;letter-spacing:0px;word-spacing:0px;fill:#000000;fill-opacity:1;stroke:none;stroke-width:0.26458332"
       x="-6.9115591"
       y="133.35452"
       id="text2462"><tspan
         sodipodi:role="line"
         id="tspan2460"
         x="-6.9115591"
         y="133.35452"
         style="stroke-width:0.26458332">a</tspan></text>
    <text
       xml:space="preserve"
       style="font-style:normal;font-variant:normal;font-weight:normal;font-stretch:normal;font-size:10.58333302px;line-height:1.25;font-family:Bahnschrift;-inkscape-font-specification:Bahnschrift;letter-spacing:0px;word-spacing:0px;fill:#000000;fill-opacity:1;stroke:none;stroke-width:0.26458332"
       x="52.949223"
       y="133.35452"
       id="text2474"><tspan
         sodipodi:role="line"
         id="tspan2472"
         x="52.949223"
         y="133.35452"
         style="stroke-width:0.26458332">c</tspan></text>
    <text
       xml:space="preserve"
       style="font-style:normal;font-variant:normal;font-weight:normal;font-stretch:normal;font-size:10.58333302px;line-height:1.25;font-family:Bahnschrift;-inkscape-font-specification:Bahnschrift;letter-spacing:0px;word-spacing:0px;fill:#000000;fill-opacity:1;stroke:none;stroke-width:0.26458332"
       x="275.14926"
       y="131.40625"
       id="text2486"><tspan
         sodipodi:role="line"
         id="tspan2484"
         x="275.14926"
         y="131.40625"
         style="stroke-width:0.26458332">j</tspan></text>
    <rect
       style="opacity:1;vector-effect:none;fill:none;fill-opacity:1;stroke:none;stroke-opacity:1"
       id="rect909"
       width="47.651272"
       height="30.469801"
       x="208.11404"
       y="13.736564" />
    <g
       id="g1731"
       transform="translate(-31.944683,-11.464009)"
       style="stroke:#000000">
      <rect
         ry="2.8558331"
         rx="2.8558333"
         y="48.06601"
         x="26.164373"
         height="14.244825"
         width="4.3428082"
         id="rect818"
         style="opacity:1;vector-effect:none;fill:#ffffff;fill-opacity:1;stroke:#000000;stroke-width:1.66499996;stroke-linecap:butt;stroke-linejoin:miter;stroke-miterlimit:4;stroke-dasharray:none;stroke-dashoffset:0;stroke-opacity:1" />
      <path
         sodipodi:nodetypes="sssssss"
         inkscape:connector-curvature="0"
         id="rect815"
         d="m 28.266968,58.882598 c 4.803501,0 8.670578,4.486436 8.670578,10.059274 v 55.316318 c 0,10.59002 2.008487,10.05927 -8.670578,10.05927 -9.401766,0 -8.670577,0.26669 -8.670577,-10.05927 V 68.941872 c 0,-5.572838 3.867078,-10.059274 8.670577,-10.059274 z"
         style="opacity:1;vector-effect:none;fill:#ffffff;fill-opacity:1;stroke:#000000;stroke-width:1.66500008;stroke-linecap:butt;stroke-linejoin:miter;stroke-miterlimit:4;stroke-dasharray:none;stroke-dashoffset:0;stroke-opacity:1" />
      <g
         id="g1684"
         transform="translate(0.52916667,-0.52916663)">
        <g
           id="g841"
           transform="matrix(1.3502161,0,0,1.3208813,-28.856347,-14.457726)"
           style="stroke:#000000;stroke-width:0.74880111">
          <circle
             r="2.6487837"
             cy="44.987141"
             cx="37.08297"
             id="path820"
             style="opacity:1;vector-effect:none;fill:#ffffff;fill-opacity:1;stroke:#000000;stroke-width:1.24675381;stroke-linecap:butt;stroke-linejoin:miter;stroke-miterlimit:4;stroke-dasharray:none;stroke-dashoffset:0;stroke-opacity:1" />
          <circle
             r="2.6487837"
             cy="44.987141"
             cx="45.975315"
             id="path820-2"
             style="opacity:1;vector-effect:none;fill:#ffffff;fill-opacity:1;stroke:#000000;stroke-width:1.24675381;stroke-linecap:butt;stroke-linejoin:miter;stroke-miterlimit:4;stroke-dasharray:none;stroke-dashoffset:0;stroke-opacity:1" />
        </g>
        <ellipse
           style="opacity:1;vector-effect:none;fill:#ffffff;fill-opacity:1;stroke:#000000;stroke-width:1.66499996;stroke-linecap:butt;stroke-linejoin:miter;stroke-miterlimit:4;stroke-dasharray:none;stroke-dashoffset:0;stroke-opacity:1"
           id="path848"
           cx="27.423431"
           cy="51.049801"
           rx="5.1091852"
           ry="4.9981828" />
      </g>
    </g>
    <g
       id="g908"
       transform="translate(-42.518963,-10.150381)"
       style="stroke:#000000">
      <rect
         ry="2.8558331"
         rx="2.8558331"
         y="58.987854"
         x="63.76001"
         height="22.703861"
         width="12.487123"
         id="rect850"
         style="opacity:1;vector-effect:none;fill:#ffffff;fill-opacity:1;stroke:#000000;stroke-width:1.66499996;stroke-linecap:butt;stroke-linejoin:miter;stroke-miterlimit:4;stroke-dasharray:none;stroke-dashoffset:0;stroke-opacity:1" />
      <circle
         r="7.1895595"
         cy="94.557236"
         cx="73.598351"
         id="path871"
         style="opacity:1;vector-effect:none;fill:#ffffff;fill-opacity:1;stroke:#000000;stroke-width:1.66499996;stroke-linecap:butt;stroke-linejoin:miter;stroke-miterlimit:4;stroke-dasharray:none;stroke-dashoffset:0;stroke-opacity:1" />
      <rect
         ry="2.8558331"
         rx="2.8558331"
         y="77.666641"
         x="68.679176"
         height="15.755395"
         width="3.0271814"
         id="rect869"
         style="opacity:1;vector-effect:none;fill:#ffffff;fill-opacity:1;stroke:#000000;stroke-width:1.66499996;stroke-linecap:butt;stroke-linejoin:miter;stroke-miterlimit:4;stroke-dasharray:none;stroke-dashoffset:0;stroke-opacity:1" />
      <rect
         ry="0.20705117"
         rx="2.8558333"
         y="75.448151"
         x="64.895195"
         height="3.9731767"
         width="9.8383389"
         id="rect850-2"
         style="opacity:1;vector-effect:none;fill:#ffffff;fill-opacity:1;stroke:#000000;stroke-width:1.66499996;stroke-linecap:butt;stroke-linejoin:miter;stroke-miterlimit:4;stroke-dasharray:none;stroke-dashoffset:0;stroke-opacity:1" />
      <circle
         transform="scale(1,-1)"
         r="1.5513768"
         cy="-94.368042"
         cx="73.598351"
         id="path871-5"
         style="opacity:1;vector-effect:none;fill:#ffffff;fill-opacity:1;stroke:#000000;stroke-width:1.66499996;stroke-linecap:butt;stroke-linejoin:miter;stroke-miterlimit:4;stroke-dasharray:none;stroke-dashoffset:0;stroke-opacity:1" />
    </g>
    <path
       style="opacity:1;vector-effect:none;fill:none;fill-opacity:1;stroke:#000000;stroke-width:1;stroke-linecap:butt;stroke-linejoin:miter;stroke-miterlimit:4;stroke-dasharray:none;stroke-dashoffset:0;stroke-opacity:1"
       d="m 75.43408,48.008663 0.0738,-6.447924 v 0"
       id="path1784"
       inkscape:connector-curvature="0" />
    <use
       x="0"
       y="0"
       xlink:href="#g908"
       id="use910"
       transform="translate(45.111517,-0.68690751)"
       width="100%"
       height="100%" />
    <path
       style="fill:#000000;stroke:#000000;stroke-width:0.26458332px;stroke-linecap:butt;stroke-linejoin:miter;stroke-opacity:1"
       d="m 271.0604,44.119559 h -7.05277 l 6.59982,13.759117 h -6.75655 z"
       id="path914"
       inkscape:connector-curvature="0" />
    <path
       style="opacity:1;vector-effect:none;fill:none;fill-opacity:1;stroke:#000000;stroke-width:1.17167985;stroke-linecap:butt;stroke-linejoin:miter;stroke-miterlimit:4;stroke-dasharray:none;stroke-dashoffset:0;stroke-opacity:1"
       d="m 56.585092,122.9554 c 3.084789,0.0323 3.97981,-0.002 4.68042,-0.18253 0.404518,-0.11638 0.506871,-0.14459 1.005499,-0.33256 0.0948,0 0.377675,-0.13048 0.652818,-0.26317 0.275151,-0.13269 0.455053,-0.27172 0.650385,-0.37253 0.195316,-0.10083 0.343108,-0.18849 0.536387,-0.28239 0.107297,-0.0521 0.194423,-0.043 0.187756,-0.19406 0.352683,-3.34991 0.253136,-2.82285 0.253607,-2.93568 l 0.0405,-0.46309 c 0.16539,-0.6593 0.0864,-17.21044 -0.08318,-17.41807 -0.01835,-0.0224 -0.04487,-0.0956 -0.05918,-0.16274 -0.01423,-0.0671 -0.102297,-0.26852 -0.195602,-0.447532 -0.09331,-0.17901 -0.101783,-0.56248 -0.134718,-0.852141 -0.08503,-0.258218 -0.0042,0.008 -0.139179,-0.422198 -0.06255,-0.198016 -0.08967,-0.178896 -0.16367,-0.342102 -0.07408,-0.163206 -0.135425,-0.294262 -0.364651,-0.633424 -0.637783,-0.991546 -0.119396,-0.31599 -0.637783,-0.991546 -0.170236,-0.22618 -0.04933,-0.200952 -0.269906,-0.3651 0,0 -0.04176,-0.07338 -0.149442,-0.258967 0,0 -0.04016,-0.167827 -0.207868,-0.455395 -0.228646,-0.24778 -0.150991,-0.281399 -0.346046,-0.47757 -0.195062,-0.196168 -1.346433,-2.16128 -1.415196,-2.868433 -0.0505,-0.51949 -0.02821,-0.429193 0.202669,-0.574073 0.356805,-0.224028 0.411068,-0.845685 0.09381,-1.16464 -0.202618,-0.203708 0.246061,-0.213189 0.589491,-0.370515 0.241286,-0.110517 0.134458,-0.354201 0.142487,-0.580133 0.0069,-0.203312 -0.134369,-0.585852 -0.116377,-0.831996 0.0029,-0.341735 -0.03265,-0.174899 -0.06914,-0.773686 -0.03649,-0.598788 -0.150585,-0.642701 -0.210194,-1.826848 -0.07043,-1.39811 -0.180849,-2.225855 -0.31506,-2.360788 -0.59676,-0.599967 -7.592498,-0.726817 -9.743184,-0.176683 -1.039432,0.265889 -1.051792,0.294847 -1.055521,2.472751 -0.0019,1.085492 -0.09785,2.426875 -0.213341,2.980857 -0.115489,0.553979 -0.168597,0.996214 -0.118024,0.982737 0.05061,-0.01348 0.342334,0.02846 0.648369,0.09322 0.429514,0.09094 0.51258,0.161857 0.364204,0.311032 -0.273898,0.275369 -0.239522,1.096549 0.0506,1.208473 0.253064,0.09758 0.213243,0.672859 0.213243,0.672859 -0.05385,0.144652 -0.04587,0.24179 -0.128155,0.530399 0,0 -0.156465,0.277958 -0.235703,0.528376 -0.07921,0.250417 -0.0089,0.06843 -0.07921,0.250417 -0.07023,0.18197 -0.02555,0.05445 -0.201494,0.338106 -0.117018,0.188376 -0.220385,0.363474 -0.327736,0.510238 -0.107351,0.146763 -0.09766,0.118291 -0.163823,0.298009 -0.06619,0.179719 -0.248961,0.394074 -0.493562,0.71647 -0.24459,0.322398 0,0 -0.444704,0.922524 -0.444714,0.922513 -0.08187,0.320244 -0.278671,0.654303 -0.19681,0.33405 -0.230545,0.719704 -0.591345,1.210721 -0.287175,1.012745 -0.265819,0.76432 -0.287175,1.012745 0,0 0.01696,0.715531 -0.423546,0.876063 -0.358462,0.13062 -0.432867,1.42437 -0.34776,9.60157 0.01164,1.11882 -0.03225,2.16578 -0.09756,2.32658 -0.0653,0.16079 -0.06175,0.63679 0.0079,1.05779 0,0 0.09016,1.72216 0.125303,3.01917 0.03511,1.297 0.164268,3.40266 0.07447,4.20185 -0.02388,0.18675 -0.01539,0.22351 0.02723,0.38761 0.04262,0.1641 0.05849,0.21642 0.0431,0.41236 -0.01548,0.19594 0.03147,0.25053 0.128145,0.31178 0.09667,0.0613 0.065,0.0494 0.269803,0.19968 0.204829,0.15031 0.344662,0.20757 0.698351,0.36791 0.353678,0.16034 0.41021,0.24824 0.598269,0.37235 0.188059,0.12409 0.242746,0.15728 0.418604,0.25103 0.175857,0.0937 0.212651,0.0881 0.286168,0.14078 0.06155,0.0441 0.160204,0.10542 0.360514,0.11392 0.200311,0.009 1.056192,0.0712 1.901952,0.13927 0.84576,0.0681 1.93838,0.0713 2.428025,0.007 0.489656,-0.0642 1.582266,-0.10944 2.428016,-0.10058 z"
       id="path1708"
       inkscape:connector-curvature="0"
       sodipodi:nodetypes="ccczzscccccccszccscczccsccczcscccccscsszzczzczzccsccczczzzzszzscsccc" />
    <path
       style="fill:none;stroke:#000000;stroke-width:1;stroke-linecap:butt;stroke-linejoin:miter;stroke-miterlimit:4;stroke-dasharray:none;stroke-opacity:1"
       d="m 0.7416834,39.181464 c 0,0 19.0303676,0.06109 24.1251106,-0.0087 l 0.04483,8.926485"
       id="path1733"
       inkscape:connector-curvature="0"
       sodipodi:nodetypes="ccc" />
    <path
       style="fill:none;stroke:#000000;stroke-width:1;stroke-linecap:butt;stroke-linejoin:miter;stroke-miterlimit:4;stroke-dasharray:none;stroke-opacity:1"
       d="M 30.222727,48.837473 29.993326,37.525204 110.90598,37.476152"
       id="path1735"
       inkscape:connector-curvature="0"
       sodipodi:nodetypes="ccc" />
    <path
       style="fill:none;stroke:#000000;stroke-width:1;stroke-linecap:butt;stroke-linejoin:miter;stroke-miterlimit:4;stroke-dasharray:none;stroke-opacity:1"
       d="M 55.483239,83.219905 V 41.647825 H 71.18367 v 6.119377"
       id="path1737"
       inkscape:connector-curvature="0"
       sodipodi:nodetypes="cccc" />
    <path
       style="fill:#000000;stroke:#000000;stroke-width:1;stroke-linecap:butt;stroke-linejoin:miter;stroke-miterlimit:4;stroke-dasharray:none;stroke-opacity:1"
       d="m 72.70725,44.782219 h -3.0031 l 1.47952,2.984983 v 0 z"
       id="path914-1"
       inkscape:connector-curvature="0"
       sodipodi:nodetypes="ccccc" />
    <path
       style="fill:#000000;stroke:#000000;stroke-width:1;stroke-linecap:butt;stroke-linejoin:miter;stroke-miterlimit:4;stroke-dasharray:none;stroke-opacity:1"
       d="m 26.350965,44.835105 h -3.0031 l 1.47952,2.984983 v 0 z"
       id="path914-1-7"
       inkscape:connector-curvature="0"
       sodipodi:nodetypes="ccccc" />
    <path
       style="opacity:1;vector-effect:none;fill:#000000;fill-opacity:1;stroke:#000000;stroke-width:1;stroke-linecap:butt;stroke-linejoin:miter;stroke-miterlimit:4;stroke-dasharray:none;stroke-dashoffset:0;stroke-opacity:1"
       d="m 73.98434,42.429052 h 3.0031 l -1.47952,-2.98498 v 0 z"
       id="path914-1-6"
       inkscape:connector-curvature="0"
       sodipodi:nodetypes="ccccc" />
    <rect
       style="opacity:1;vector-effect:none;fill:#ffffff;fill-opacity:1;stroke:#000000;stroke-width:1.66499996;stroke-linecap:butt;stroke-linejoin:miter;stroke-miterlimit:4;stroke-dasharray:none;stroke-dashoffset:0;stroke-opacity:1"
       id="rect888"
       width="8.5501423"
       height="33.495152"
       x="-35.200981"
       y="206.33263"
       rx="0"
       ry="0"
       transform="rotate(-90)" />
    <rect
       style="opacity:1;vector-effect:none;fill:#ffffff;fill-opacity:1;stroke:#000000;stroke-width:1.66499984;stroke-linecap:butt;stroke-linejoin:miter;stroke-miterlimit:4;stroke-dasharray:none;stroke-dashoffset:0;stroke-opacity:1"
       id="rect888-9"
       width="13.357601"
       height="9.4599428"
       x="-37.60471"
       y="239.82777"
       rx="0"
       ry="0"
       transform="rotate(-90)" />
    <rect
       style="opacity:1;vector-effect:none;fill:#ffffff;fill-opacity:1;stroke:#000000;stroke-width:1.66499984;stroke-linecap:butt;stroke-linejoin:miter;stroke-miterlimit:4;stroke-dasharray:none;stroke-dashoffset:0;stroke-opacity:1"
       id="rect888-9-2"
       width="13.020662"
       height="9.4599428"
       x="-37.436241"
       y="196.87268"
       rx="0"
       ry="0"
       transform="rotate(-90)" />
    <path
       style="opacity:1;vector-effect:none;fill:#000000;fill-opacity:1;stroke:#000000;stroke-width:1;stroke-linecap:butt;stroke-linejoin:miter;stroke-miterlimit:4;stroke-dasharray:none;stroke-dashoffset:0;stroke-opacity:1"
       d="m 75.50788,41.560739 -0.0738,-4.194511"
       id="path1822"
       inkscape:connector-curvature="0" />
    <path
       style="opacity:1;vector-effect:none;fill:none;fill-opacity:1;stroke:#000000;stroke-width:1;stroke-linecap:butt;stroke-linejoin:miter;stroke-miterlimit:4;stroke-dasharray:none;stroke-dashoffset:0;stroke-opacity:1"
       d="m 249.99132,30.92591 17.61621,0 c -0.18921,13.981458 0,0 -0.18921,13.981458"
       id="path1824"
       inkscape:connector-curvature="0"
       sodipodi:nodetypes="ccc" />
    <path
       style="opacity:1;vector-effect:none;fill:none;fill-opacity:1;stroke:#000000;stroke-width:1;stroke-linecap:butt;stroke-linejoin:miter;stroke-miterlimit:4;stroke-dasharray:none;stroke-dashoffset:0;stroke-opacity:1"
       d="M 267.37103,52.029694 V 78.17855"
       id="path1826"
       inkscape:connector-curvature="0"
       sodipodi:nodetypes="cc" />
    <path
       style="fill:none;stroke:#000000;stroke-width:1"
       d="m 266.18232,142.18014 c -0.46993,-0.0327 -1.07412,-0.10759 -1.34265,-0.16645 -0.59572,-0.13057 -1.49279,-0.47673 -1.66848,-0.64383 -0.21814,-0.20746 -0.3198,-1.26375 -0.35598,-3.69846 0,0 -0.0219,-1.55368 -0.0346,-2.33049 -0.0157,-0.86626 -0.0235,-1.51962 -0.0263,-2.03073 -0.006,-1.07003 -0.0216,-2.04171 -0.0353,-2.1593 -0.0137,-0.11759 -0.0365,-1.50297 -0.0506,-3.07862 -0.0301,-3.35542 8e-5,-3.56296 0.67132,-4.60766 l 0.40551,-0.63114 -0.0224,-1.33577 -0.0224,-1.33575 -0.40687,-0.006 c -0.22377,-0.003 -0.49235,-0.0359 -0.59684,-0.0722 -0.15972,-0.0555 -0.18024,-0.10225 -0.12882,-0.29317 0.0336,-0.12491 0.0697,-1.13146 0.0802,-2.23676 0.0105,-1.10531 0.0227,-2.03697 0.0271,-2.07036 0.61137,-0.0524 0.27543,-0.0545 0.41492,-0.0584 1.07614,-0.03 3.45799,-0.18086 4.7561,-0.16748 2.1989,0.0273 2.01672,0.0766 2.50504,0.0643 0.4883,-0.0122 0.56766,-0.0234 0.62734,-0.0234 0.14527,0 0.15182,0.34935 0.18415,0.53635 0.0562,0.32494 0.0189,0.66051 0.0124,0.9907 -0.004,0.20283 -0.0303,0.40483 -0.0317,0.60769 -0.002,0.25842 0.03,0.51625 0.0292,0.77467 -6.2e-4,0.1736 -0.0218,0.34666 -0.0228,0.52027 -6.2e-4,0.13942 0.0138,0.41802 0.0138,0.41802 0.0273,0.13573 0.0814,0.26945 0.0496,0.67447 -0.0227,0.0239 -0.3065,0.0784 -0.63066,0.12116 -0.32415,0.0428 -0.61377,0.10342 -0.64359,0.13477 -0.0298,0.0314 -0.0553,0.67608 -0.0567,1.43273 l -0.002,1.37575 0.40008,0.43438 c 0.22004,0.2389 0.49043,0.64603 0.60086,0.90472 0.37883,0.88745 0.42332,1.68167 0.3422,6.10848 -0.0406,2.2139 -0.073,5.45417 -0.0721,7.2006 0.002,3.58354 0.003,3.57531 -0.60777,4.03571 -0.38039,0.28665 -1.21202,0.49683 -2.26469,0.57234 -0.36969,0.0265 -0.80033,0.0595 -0.95697,0.0733 -0.15665,0.0138 -0.6693,-0.002 -1.13922,-0.0343 z"
       id="path2390"
       inkscape:connector-curvature="0"
       sodipodi:nodetypes="cccscccscccccccccsczsaaaaascccccccscccccc" />
    <text
       xml:space="preserve"
       style="font-style:normal;font-variant:normal;font-weight:normal;font-stretch:normal;font-size:10.58333302px;line-height:1.25;font-family:Bahnschrift;-inkscape-font-specification:Bahnschrift;letter-spacing:0px;word-spacing:0px;fill:#000000;fill-opacity:1;stroke:none;stroke-width:0.26458332"
       x="36.853275"
       y="63.594982"
       id="text2466"><tspan
         sodipodi:role="line"
         id="tspan2464"
         x="36.853275"
         y="63.594982"
         style="stroke-width:0.26458332">b</tspan></text>
    <text
       xml:space="preserve"
       style="font-style:normal;font-variant:normal;font-weight:normal;font-stretch:normal;font-size:10.58333302px;line-height:1.25;font-family:Bahnschrift;-inkscape-font-specification:Bahnschrift;letter-spacing:0px;word-spacing:0px;fill:#000000;fill-opacity:1;stroke:none;stroke-width:0.26458332"
       x="82.117195"
       y="63.594982"
       id="text2470"><tspan
         sodipodi:role="line"
         id="tspan2468"
         x="82.117195"
         y="63.594982"
         style="stroke-width:0.26458332">d</tspan></text>
    <text
       xml:space="preserve"
       style="font-style:normal;font-variant:normal;font-weight:normal;font-stretch:normal;font-size:10.58333302px;line-height:1.25;font-family:Bahnschrift;-inkscape-font-specification:Bahnschrift;letter-spacing:0px;word-spacing:0px;fill:#000000;fill-opacity:1;stroke:none;stroke-width:0.26458332"
       x="221.37415"
       y="24.984341"
       id="text2478"><tspan
         sodipodi:role="line"
         id="tspan2476"
         x="221.37415"
         y="24.984341"
         style="stroke-width:0.26458332">f</tspan></text>
    <rect
       style="opacity:1;vector-effect:none;fill:none;fill-opacity:1;stroke:url(#pattern1585);stroke-width:2.2650001;stroke-linecap:butt;stroke-linejoin:miter;stroke-miterlimit:4;stroke-dasharray:none;stroke-dashoffset:0;stroke-opacity:1"
       id="rect1589"
       width="68.204521"
       height="45.479645"
       x="189.02631"
       y="14.378584"
       ry="0" />
    <text
       xml:space="preserve"
       style="font-style:normal;font-variant:normal;font-weight:normal;font-stretch:normal;font-size:10.58333302px;line-height:1.25;font-family:Bahnschrift;-inkscape-font-specification:Bahnschrift;letter-spacing:0px;word-spacing:0px;fill:#000000;fill-opacity:1;stroke:none;stroke-width:0.26458332"
       x="220.3277"
       y="71.610786"
       id="text2482-2"><tspan
         sodipodi:role="line"
         id="tspan2480-9"
         x="220.3277"
         y="71.610786"
         style="stroke-width:0.26458332">g</tspan></text>
    <text
       xml:space="preserve"
       style="font-style:normal;font-variant:normal;font-weight:normal;font-stretch:normal;font-size:10.58333302px;line-height:1.25;font-family:Bahnschrift;-inkscape-font-specification:Bahnschrift;letter-spacing:0px;word-spacing:0px;fill:#000000;fill-opacity:1;stroke:none;stroke-width:0.26458332"
       x="273.37204"
       y="54.755993"
       id="text2482-2-7"><tspan
         sodipodi:role="line"
         id="tspan2480-9-0"
         x="273.37204"
         y="54.755993"
         style="stroke-width:0.26458332">h</tspan></text>
    <g
       id="g1678"
       transform="translate(65.256594,-11.612012)"
       style="stroke:url(#pattern270)">
      <path
         sodipodi:nodetypes="czzc"
         inkscape:connector-curvature="0"
         id="path1639"
         d="m 151.89942,49.957039 c 0,0 -2.0408,3.755097 -2.02163,5.816691 0.0192,2.061595 1.93922,3.391281 1.93739,5.22315 -0.002,1.831869 -1.68469,4.510899 -1.68469,4.510899"
         style="fill:none;stroke:url(#pattern270);stroke-width:0.26458332px;stroke-linecap:butt;stroke-linejoin:miter;stroke-opacity:1" />
      <path
         style="fill:none;stroke:url(#pattern270);stroke-width:0.26458332px;stroke-linecap:butt;stroke-linejoin:miter;stroke-opacity:1"
         d="m 155.39515,49.957039 c 0,0 -2.0408,3.755097 -2.02163,5.816691 0.0192,2.061595 1.93922,3.391281 1.93739,5.22315 -0.002,1.831869 -1.68469,4.510899 -1.68469,4.510899"
         id="path1641"
         inkscape:connector-curvature="0"
         sodipodi:nodetypes="czzc" />
      <path
         sodipodi:nodetypes="czzc"
         inkscape:connector-curvature="0"
         id="path1643"
         d="m 158.89088,49.957039 c 0,0 -2.0408,3.755097 -2.02163,5.816691 0.0192,2.061595 1.93922,3.391281 1.93739,5.22315 -0.002,1.831869 -1.68469,4.510899 -1.68469,4.510899"
         style="fill:none;stroke:url(#pattern270);stroke-width:0.26458332px;stroke-linecap:butt;stroke-linejoin:miter;stroke-opacity:1" />
      <path
         style="fill:none;stroke:url(#pattern270);stroke-width:0.26458332px;stroke-linecap:butt;stroke-linejoin:miter;stroke-opacity:1"
         d="m 162.38662,49.957039 c 0,0 -2.0408,3.755097 -2.02163,5.816691 0.0192,2.061595 1.93922,3.391281 1.93739,5.22315 -0.002,1.831869 -1.68469,4.510899 -1.68469,4.510899"
         id="path1645"
         inkscape:connector-curvature="0"
         sodipodi:nodetypes="czzc" />
      <path
         sodipodi:nodetypes="czzc"
         inkscape:connector-curvature="0"
         id="path1647"
         d="m 165.88235,49.957039 c 0,0 -2.0408,3.755097 -2.02163,5.816691 0.0192,2.061595 1.93922,3.391281 1.93739,5.22315 -0.002,1.831869 -1.68469,4.510899 -1.68469,4.510899"
         style="fill:none;stroke:url(#pattern270);stroke-width:0.26458332px;stroke-linecap:butt;stroke-linejoin:miter;stroke-opacity:1" />
    </g>
    <circle
       style="opacity:1;vector-effect:none;fill:#ffffff;fill-opacity:1;stroke:#000000;stroke-width:1;stroke-linecap:butt;stroke-linejoin:miter;stroke-miterlimit:4;stroke-dasharray:none;stroke-dashoffset:0;stroke-opacity:1"
       id="path1748"
       cx="127.16653"
       cy="37.476158"
       r="12.803661" />
    <path
       id="path144"
       style="opacity:1;vector-effect:none;fill:none;fill-opacity:1;stroke:#000000;stroke-width:1;stroke-linecap:butt;stroke-linejoin:miter;stroke-miterlimit:4;stroke-dasharray:none;stroke-dashoffset:0;stroke-opacity:1"
       d="M 160.26081,95.98341 V 37.476158 h -17.42556 l -15.528,0.0813 7.98951,14.000746 c 12.68208,-0.06793 21.39222,-0.319112 34.06947,0 v -5.133823 c 0,0 -4.04774,-0.686335 -4.04774,-2.695267 0,-2.008933 2.7476,-2.779423 4.04774,-2.804064 1.30014,-0.02464 3.86671,0.328916 3.83451,1.613997 -0.0322,1.285081 -2.02802,1.753852 -3.77098,1.753852 -1.74296,0 -4.11127,-1.250114 -4.11127,-3.259055 -0.003,-2.008937 0.81406,-4.496538 4.03513,-4.565539 2.16853,-0.04645 3.5418,0.506181 3.56384,1.508013 0.0295,1.340819 -1.55431,1.716154 -3.55123,1.682351 -1.99692,-0.0338 -4.11675,-1.185723 -4.04775,-4.015364 -1e-5,-3.926197 3.35056,-3.773375 4.04775,-3.773375 0.69718,0 3.48593,0 3.48593,1.617161 0,1.617161 -2.16469,1.584413 -3.48593,1.617161 -1.32124,0.03275 -4.10478,-0.148091 -4.04775,-2.156216 0.0628,-2.209951 3.48995,-2.538672 4.04773,-2.695267 l 2e-5,-2.695269 V 11.924718 h -50.33002 l 0.031,11.469388 7.95844,14.000756 -16.11967,0.08129 16.11967,0.08131 -8.00005,14.000748 0.0106,6.356922 h 56.98714 l 0,-26.989222 21.50902,0 m -70.24546,6.409546 8.00985,-13.941343 3.99933,-6.927027 h 6.73078 v 29.99731"
       inkscape:connector-curvature="0"
       sodipodi:nodetypes="cccccccsssscccccsscccccccccccccccccccc" />
    <circle
       style="opacity:1;vector-effect:none;fill:#ffffff;fill-opacity:1;stroke:#ffffff;stroke-width:1;stroke-linecap:butt;stroke-linejoin:miter;stroke-miterlimit:4;stroke-dasharray:none;stroke-dashoffset:0;stroke-opacity:1"
       id="path1750"
       cx="127.16653"
       cy="37.476158"
       r="5.3910151" />
    <path
       d="m -94.883849,87.034139 a 5.3910151,5.3910151 0 0 1 -2.913975,4.597859"
       sodipodi:open="true"
       sodipodi:end="1.0941068"
       sodipodi:start="0.035651876"
       sodipodi:ry="5.3910151"
       sodipodi:rx="5.3910151"
       sodipodi:cy="86.84198"
       sodipodi:cx="-100.27144"
       sodipodi:type="arc"
       id="use1777"
       style="opacity:1;vector-effect:none;fill:none;fill-opacity:1;stroke:#000000;stroke-width:1;stroke-linecap:round;stroke-linejoin:miter;stroke-miterlimit:4;stroke-dasharray:none;stroke-dashoffset:0;stroke-opacity:1"
       inkscape:transform-center-x="4.3063648"
       inkscape:transform-center-y="2.7660643"
       transform="rotate(-122.75785)" />
    <use
       x="0"
       y="0"
       xlink:href="#use1777"
       id="use1779"
       transform="rotate(-115.91475,127.12677,37.958404)"
       width="100%"
       height="100%"
       inkscape:transform-center-x="-1.0882631"
       inkscape:transform-center-y="-5.4278433" />
    <use
       x="0"
       y="0"
       xlink:href="#use1779"
       inkscape:transform-center-x="0.38065018"
       inkscape:transform-center-y="-4.8854118"
       id="use1787"
       width="100%"
       height="100%"
       transform="rotate(-122.85245,126.76475,37.530817)" />
    <g
       id="g2405"
       style="stroke-width:2.91889381;stroke-miterlimit:4;stroke-dasharray:none"
       transform="matrix(-0.33332096,-0.00404579,0.00383021,-0.35208172,193.95166,130.8379)">
      <path
         inkscape:connector-curvature="0"
         id="path2384"
         d="m 146.51401,237.95824 -1.26155,-84.8295"
         style="fill:none;stroke:#000000;stroke-width:2.91889381;stroke-linecap:butt;stroke-linejoin:miter;stroke-miterlimit:4;stroke-dasharray:none;stroke-opacity:1" />
      <path
         inkscape:connector-curvature="0"
         id="path2386"
         d="m 138.06486,143.95135 -0.3281,10.01432 14.37911,0.1892 -0.1892,-11.54113 -0.946,-0.75679 0.5676,-0.5676 v -10.02754 l -13.62232,-0.1892 0.1892,9.64915 1.1352,1.70279 z"
         style="fill:none;stroke:#000000;stroke-width:2.91889381;stroke-linecap:butt;stroke-linejoin:miter;stroke-miterlimit:4;stroke-dasharray:none;stroke-opacity:1" />
      <path
         inkscape:connector-curvature="0"
         id="path2388"
         d="M 138.85084,130.94088 136.19189,1.0702701 h 13.37838 l 0.76926,130.1716199 -11.47196,-0.20067"
         style="fill:none;stroke:#000000;stroke-width:2.91889381;stroke-linecap:butt;stroke-linejoin:miter;stroke-miterlimit:4;stroke-dasharray:none;stroke-opacity:1" />
      <path
         inkscape:connector-curvature="0"
         id="path2390-6"
         d="m 134.89877,-5.15055 0.2365,5.48676604 15.04131,-0.18919883 -0.2365,-5.34486731 -1.93929,-1.3243917 -10.87893,-0.094599 z"
         style="fill:none;stroke:#000000;stroke-width:2.91889381;stroke-linecap:butt;stroke-linejoin:miter;stroke-miterlimit:4;stroke-dasharray:none;stroke-opacity:1" />
      <path
         inkscape:connector-curvature="0"
         id="path2392"
         d="m 137.12186,-6.6168407 -6.10166,0.1891983 0.0473,-2.7433833 4.58807,-1.1824933 13.48041,-0.0946 4.25698,0.8986947 0.1892,3.3582795 -5.58137,-0.331098"
         style="fill:none;stroke:#000000;stroke-width:2.91889381;stroke-linecap:butt;stroke-linejoin:miter;stroke-miterlimit:4;stroke-dasharray:none;stroke-opacity:1" />
      <path
         inkscape:connector-curvature="0"
         id="path2394"
         d="m 140.19634,-10.921115 -0.0946,-18.919884 h 3.97318 l 0.1892,19.014484 z"
         style="fill:none;stroke:#000000;stroke-width:2.91889381;stroke-linecap:butt;stroke-linejoin:miter;stroke-miterlimit:4;stroke-dasharray:none;stroke-opacity:1" />
      <path
         inkscape:connector-curvature="0"
         id="path2396"
         d="m 134.70957,-29.935598 h 14.85211 l -0.0946,-4.067776 -15.0413,0.2838 z"
         style="fill:none;stroke:#000000;stroke-width:2.91889381;stroke-linecap:butt;stroke-linejoin:miter;stroke-miterlimit:4;stroke-dasharray:none;stroke-opacity:1" />
    </g>
    <flowRoot
       xml:space="preserve"
       id="flowRoot902"
       style="font-style:normal;font-variant:normal;font-weight:normal;font-stretch:normal;font-size:40px;line-height:1.25;font-family:Bahnschrift;-inkscape-font-specification:Bahnschrift;letter-spacing:0px;word-spacing:0px;fill:#000000;fill-opacity:1;stroke:none"
       transform="matrix(0.26458333,0,0,0.26458333,1.8775685,10.244083)"><flowRegion
         id="flowRegion904"><rect
           id="rect906"
           width="36.019119"
           height="158.48413"
           x="579.90784"
           y="444.88831" /></flowRegion><flowPara
         id="flowPara908" /></flowRoot>    <path
       style="opacity:1;vector-effect:none;fill:none;fill-opacity:1;stroke:#000000;stroke-width:1;stroke-linecap:butt;stroke-linejoin:miter;stroke-miterlimit:4;stroke-dasharray:none;stroke-dashoffset:0;stroke-opacity:1"
       d="M 266.89671,94.385429 V 114.91177"
       id="path1826-5"
       inkscape:connector-curvature="0"
       sodipodi:nodetypes="cc" />
    <text
       id="text4922"
       y="112.39022"
       x="182.04706"
       style="font-style:normal;font-variant:normal;font-weight:normal;font-stretch:normal;font-size:10.58333302px;line-height:1.25;font-family:Bahnschrift;-inkscape-font-specification:Bahnschrift;letter-spacing:0px;word-spacing:0px;fill:#000000;fill-opacity:1;stroke:none;stroke-width:0.26458332"
       xml:space="preserve"><tspan
         style="stroke-width:0.26458332"
         y="112.39022"
         x="182.04706"
         id="tspan4920"
         sodipodi:role="line">e</tspan></text>
    <rect
       style="opacity:1;vector-effect:none;fill:none;fill-opacity:1;stroke:#000000;stroke-width:1;stroke-linecap:butt;stroke-linejoin:miter;stroke-miterlimit:4;stroke-dasharray:none;stroke-dashoffset:0;stroke-opacity:1"
       id="rect1174"
       width="12.45422"
       height="15.875"
       x="261.14392"
       y="78.446342"
       rx="2.8558331"
       ry="2.8558331" />
    <text
       xml:space="preserve"
       style="font-style:normal;font-variant:normal;font-weight:normal;font-stretch:normal;font-size:10.58333302px;line-height:1.25;font-family:Bahnschrift;-inkscape-font-specification:Bahnschrift;letter-spacing:0px;word-spacing:0px;fill:#000000;fill-opacity:1;stroke:none;stroke-width:0.26458332"
       x="310.78653"
       y="112.53828"
       id="text2482-2-77"><tspan
         sodipodi:role="line"
         id="tspan2480-9-6"
         x="310.78653"
         y="112.53828"
         style="stroke-width:0.26458332">i</tspan></text>
    <rect
       style="opacity:1;vector-effect:none;fill:none;fill-opacity:1;stroke:#000000;stroke-width:1;stroke-linecap:butt;stroke-linejoin:miter;stroke-miterlimit:4;stroke-dasharray:none;stroke-dashoffset:0;stroke-opacity:1"
       id="rect4910"
       width="44.979168"
       height="24.870832"
       x="289.65088"
       y="73.948425"
       rx="2.8558331"
       ry="2.8558331" />
    <g
       id="g5670"
       transform="translate(-0.00166629,-7.6056952)">
      <path
         inkscape:connector-curvature="0"
         id="path4912"
         d="m 294.76193,84.643425 v 18.559945 h 34.89269"
         style="fill:none;stroke:#000000;stroke-width:0.26458332px;stroke-linecap:butt;stroke-linejoin:miter;stroke-opacity:1" />
      <path
         inkscape:connector-curvature="0"
         id="path4916"
         d="m 297.1541,100.90949 h 2.1777 l 0.98986,-4.652366 0.89088,4.652366 h 1.48482 l 1.2868,-6.780571 1.08886,6.780571 h 2.27669 l 1.97972,-9.502697 1.73225,9.502697 h 2.32619 l 1.63328,-13.313673 1.28682,13.313673 h 1.73226 l 0.54443,-4.503885 0.59391,4.503885 h 2.02922 l 1.03936,-4.404899 0.39595,2.078712 1.88074,-6.830057 1.58377,8.017894 0.39595,-0.841383 0.49493,1.979733"
         style="fill:none;stroke:#ff0000;stroke-width:0.26458332px;stroke-linecap:butt;stroke-linejoin:miter;stroke-opacity:1" />
    </g>
    <path
       inkscape:connector-curvature="0"
       id="path4918"
       d="M 289.58412,86.383843 H 273.33688"
       style="opacity:1;vector-effect:none;fill:none;fill-opacity:1;stroke:#000000;stroke-width:0.99999994;stroke-linecap:butt;stroke-linejoin:miter;stroke-miterlimit:4;stroke-dasharray:none;stroke-dashoffset:0;stroke-opacity:1" />
    <text
       xml:space="preserve"
       style="font-style:normal;font-variant:normal;font-weight:normal;font-stretch:normal;font-size:10.58333302px;line-height:1.25;font-family:Bahnschrift;-inkscape-font-specification:Bahnschrift;letter-spacing:0px;word-spacing:0px;fill:#000000;fill-opacity:1;stroke:none;stroke-width:0.26458332"
       x="263.82086"
       y="90.140717"
       id="text4926"><tspan
         sodipodi:role="line"
         id="tspan4924"
         x="263.82086"
         y="90.140717"
         style="stroke-width:0.26458332">D</tspan></text>
    <path
       sodipodi:nodetypes="cccscccscccccccccsczsaaaaascccccccscccccc"
       inkscape:connector-curvature="0"
       id="path126"
       d="m 159.34703,123.1486 c -0.46993,-0.0327 -1.07412,-0.10759 -1.34265,-0.16645 -0.59572,-0.13057 -1.49279,-0.47673 -1.66848,-0.64383 -0.21814,-0.20746 -0.3198,-1.26375 -0.35598,-3.69846 0,0 -0.0219,-1.55368 -0.0346,-2.33049 -0.0157,-0.86626 -0.0235,-1.51962 -0.0263,-2.03073 -0.006,-1.07003 -0.0216,-2.04171 -0.0353,-2.1593 -0.0137,-0.11759 -0.0365,-1.50297 -0.0506,-3.07862 -0.0301,-3.35542 8e-5,-3.56296 0.67132,-4.60766 l 0.40551,-0.63113 -0.0224,-1.33578 -0.0224,-1.33575 -0.40687,-0.006 c -0.22377,-0.003 -0.49235,-0.0359 -0.59684,-0.0722 -0.15972,-0.0555 -0.18024,-0.10225 -0.12882,-0.29317 0.0336,-0.12491 0.0697,-1.131455 0.0802,-2.236755 0.0105,-1.10531 0.0227,-2.03697 0.0271,-2.07036 0.61137,-0.0524 0.27543,-0.0545 0.41492,-0.0584 1.07614,-0.03 3.45799,-0.18086 4.7561,-0.16748 2.1989,0.0273 2.01672,0.0766 2.50504,0.0643 0.4883,-0.0122 0.56766,-0.0234 0.62734,-0.0234 0.14527,0 0.15182,0.34935 0.18415,0.53635 0.0562,0.32494 0.0189,0.66051 0.0124,0.9907 -0.004,0.20283 -0.0303,0.40483 -0.0317,0.60769 -0.002,0.25842 0.03,0.51625 0.0292,0.77467 -6.2e-4,0.1736 -0.0218,0.34666 -0.0228,0.52027 -6.2e-4,0.13942 0.0138,0.418015 0.0138,0.418015 0.0273,0.13573 0.0814,0.26945 0.0496,0.67447 -0.0227,0.0239 -0.3065,0.0784 -0.63066,0.12116 -0.32415,0.0428 -0.61377,0.10342 -0.64359,0.13477 -0.0298,0.0314 -0.0553,0.67608 -0.0567,1.43273 l -0.002,1.37575 0.40008,0.43438 c 0.22004,0.2389 0.49043,0.64603 0.60086,0.90472 0.37883,0.88745 0.42332,1.68167 0.3422,6.10848 -0.0406,2.2139 -0.073,5.45417 -0.0721,7.2006 0.002,3.58354 0.003,3.57531 -0.60777,4.03571 -0.38039,0.28665 -1.21202,0.49683 -2.26469,0.57234 -0.36969,0.0265 -0.80033,0.0595 -0.95697,0.0733 -0.15665,0.0138 -0.6693,-0.002 -1.13922,-0.0343 z"
       style="fill:none;stroke:#000000;stroke-width:1" />
    <rect
       style="opacity:1;vector-effect:none;fill:none;fill-opacity:1;stroke:#b3b3b3;stroke-width:0.99999994;stroke-linecap:butt;stroke-linejoin:miter;stroke-miterlimit:4;stroke-dasharray:none;stroke-dashoffset:0;stroke-opacity:1"
       id="rect181"
       width="71.310715"
       height="140.35571"
       x="109.1722"
       y="5.992589"
       rx="0"
       ry="0" />
  </g>
</svg>
